<?xml version="1.0" encoding="utf-8"?>
<svg width="17px" height="22px" viewBox="0 0 17 22" version="1.1" xmlns:xlink="http://www.w3.org/1999/xlink" xmlns="http://www.w3.org/2000/svg">
  <defs>
    <linearGradient x1="0.5" y1="0" x2="0.5" y2="1" id="gradient_1">
      <stop offset="0" stop-color="#54C7EA" />
      <stop offset="1" stop-color="#3462BF" />
    </linearGradient>
  </defs>
  <path d="M13.75 14.575C10.3125 18.15 8.25 17.875 8.25 17.875C8.25 17.875 5.6375 17.6 2.8875 14.575C0 11.4125 0 8.525 0 7.2875C0 3.1625 3.85 0 8.25 0C12.7875 0 16.5 3.1625 16.5 7.2875C16.5 8.9375 16.775 11.55 13.75 14.575ZM8.25 5.5C6.7375 5.5 5.5 6.7375 5.5 8.25C5.5 9.7625 6.7375 11 8.25 11C9.7625 11 11 9.7625 11 8.25C11 6.7375 9.7625 5.5 8.25 5.5ZM8.25 19.25C11.275 19.25 12.375 19.8 12.375 20.625C12.375 21.45 11.275 22 8.25 22C5.225 22 4.125 21.45 4.125 20.625C4.125 19.9375 5.225 19.25 8.25 19.25Z" id="形状" fill="url(#gradient_1)" stroke="none" />
</svg>