<?xml version="1.0" encoding="utf-8"?>
<svg width="22px" height="15px" viewBox="0 0 22 15" version="1.1" xmlns:xlink="http://www.w3.org/1999/xlink" xmlns="http://www.w3.org/2000/svg">
  <defs>
    <linearGradient x1="0.5" y1="0" x2="0.5" y2="1" id="gradient_1">
      <stop offset="0" stop-color="#54C7EA" />
      <stop offset="1" stop-color="#3462BF" />
    </linearGradient>
  </defs>
  <path d="M22 7.60131L22 9.99671L5.2046 9.99671C4.78517 10.03 4.3836 9.80924 4.1644 9.42495C3.9452 9.04065 3.9452 8.55736 4.1644 8.17307C4.3836 7.78877 4.78517 7.56804 5.2046 7.60131L9.61186 7.60131L10.8072 6L20.5044 6C21.3304 6 22 6.71693 22 7.60131L22 7.60131ZM6 7C4.89543 7 4 6.10457 4 5C4 3.89543 4.89543 3 6 3C7.10457 3 8 3.89543 8 5C8 6.10457 7.10457 7 6 7L6 7ZM22 15L19.8027 15L19.8027 12.1569L2.20031 12.1569L2.20031 14.9942L0.00302109 14.9942L0.00302109 1.51253C-0.0319946 0.983997 0.239487 0.480443 0.707467 0.205904C1.17545 -0.0686348 1.76232 -0.0686348 2.2303 0.205904C2.69828 0.480443 2.96976 0.983997 2.93475 1.51253L2.93475 10.0303L22 10.0303L22 15Z" id="形状" fill="url(#gradient_1)" stroke="none" />
</svg>