<svg t="1638458676004" class="icon" viewBox="0 0 1024 1024" version="1.1" xmlns="http://www.w3.org/2000/svg" p-id="3269" width="32" height="32"><path d="M358.4 384c0 28.672 41.472 60.075 102.4 71.85v-143.7c-60.928 12.117-102.4 43.178-102.4 71.85z m204.8 327.85c61.099-11.775 102.4-43.178 102.4-71.85s-41.301-59.733-102.4-71.85z" p-id="3270" fill="#23FFFC"></path><path d="M853.333 0H170.667A170.667 170.667 0 0 0 0 170.667v682.666A170.667 170.667 0 0 0 170.667 1024h682.666A170.667 170.667 0 0 0 1024 853.333V170.667A170.667 170.667 0 0 0 853.333 0zM768 640c0 88.235-86.528 159.573-204.8 175.787V870.4H460.8v-54.613C342.699 799.573 256 728.235 256 640h102.4c0 28.672 41.472 60.075 102.4 71.85V559.788C342.699 543.573 256 472.235 256 384s86.699-159.573 204.8-175.787V153.6h102.4v54.613C681.472 225.28 768 295.765 768 384H665.6c0-28.672-41.301-60.075-102.4-71.85v152.063C681.472 480.427 768 551.765 768 640z" p-id="3271" fill="#23FFFC"></path></svg>