<?xml version="1.0" encoding="utf-8"?>
<svg version="1.1" xmlns:xlink="http://www.w3.org/1999/xlink" width="27px" height="28px" xmlns="http://www.w3.org/2000/svg">
  <g transform="matrix(1 0 0 1 -21 -12 )">
    <path d="M 26.2014508928571 12.6525  C 26.7338169642857 14.2158333333333  27 16.1583333333333  27 18.48  C 27 20.4166666666667  26.3621651785714 23.0475  25.0864955357143 26.3725  C 25.0563616071429 26.4541666666667  25.0036272321429 26.5941666666667  24.9282924107143 26.7925  C 24.8529575892857 26.9908333333333  24.78515625 27.1658333333333  24.7248883928571 27.3175  C 24.6646205357143 27.4691666666667  24.5993303571429 27.5975  24.5290178571429 27.7025  C 24.4084821428571 27.9008333333333  24.2678571428571 28  24.1071428571429 28  C 23.9564732142857 28  23.8384486607143 27.9416666666667  23.7530691964286 27.825  C 23.6676897321429 27.7083333333333  23.625 27.5625  23.625 27.3875  C 23.625 27.2825  23.6375558035714 27.1279166666667  23.6626674107143 26.92375  C 23.6877790178571 26.7195833333333  23.7003348214286 26.5825  23.7003348214286 26.5125  C 23.7505580357143 25.7191666666667  23.7756696428571 25.0016666666667  23.7756696428571 24.36  C 23.7756696428571 23.1816666666667  23.6877790178571 22.1258333333333  23.5119977678571 21.1925  C 23.3362165178571 20.2591666666667  23.0926339285714 19.45125  22.78125 18.76875  C 22.4698660714286 18.08625  22.0680803571429 17.4970833333333  21.5758928571429 17.00125  C 21.0837053571429 16.5054166666667  20.5538504464286 16.1  19.986328125 15.785  C 19.4188058035714 15.47  18.7508370535714 15.2220833333333  17.982421875 15.04125  C 17.2140066964286 14.8604166666667  16.4405691964286 14.735  15.662109375 14.665  C 14.8836495535714 14.595  14.0022321428571 14.56  13.0178571428571 14.56  L 9.64285714285714 14.56  L 9.64285714285714 19.04  C 9.64285714285714 19.3433333333333  9.54743303571429 19.6058333333333  9.35658482142857 19.8275  C 9.16573660714286 20.0491666666667  8.93973214285714 20.16  8.67857142857143 20.16  C 8.41741071428572 20.16  8.19140625 20.0491666666667  8.00055803571429 19.8275  L 0.286272321428571 10.8675  C 0.0954241071428571 10.6458333333333  0 10.3833333333333  0 10.08  C 0 9.77666666666667  0.0954241071428571 9.51416666666666  0.286272321428571 9.2925  L 8.00055803571429 0.332499999999999  C 8.19140625 0.110833333333332  8.41741071428572 0  8.67857142857143 0  C 8.93973214285714 0  9.16573660714286 0.110833333333332  9.35658482142857 0.332499999999999  C 9.54743303571429 0.554166666666663  9.64285714285714 0.816666666666664  9.64285714285714 1.12  L 9.64285714285714 5.6  L 13.0178571428571 5.6  C 20.1796875 5.6  24.57421875 7.95083333333333  26.2014508928571 12.6525  Z " fill-rule="nonzero" fill="#4496d5" stroke="none" transform="matrix(1 0 0 1 21 12 )" />
  </g>
</svg>