<?xml version="1.0" encoding="utf-8"?>
<svg width="18px" height="18px" viewBox="0 0 18 18" version="1.1" xmlns:xlink="http://www.w3.org/1999/xlink" xmlns="http://www.w3.org/2000/svg">
  <defs>
    <linearGradient x1="0.5" y1="0" x2="0.5" y2="1" id="gradient_1">
      <stop offset="0" stop-color="#54C7EA" />
      <stop offset="1" stop-color="#3462BF" />
    </linearGradient>
  </defs>
  <path d="M17.4857 16.9091L16.9714 16.9091L16.9714 6.16364C16.9714 5.56114 16.5109 5.07273 15.9429 5.07273L12.3429 5.07273C12.0588 5.07273 11.8286 5.31694 11.8286 5.61818L11.8286 16.3636C11.8286 16.6649 11.5983 16.9091 11.3143 16.9091C11.0303 16.9091 10.8 16.6649 10.8 16.3636L10.8 1.09091C10.8 0.488417 10.3395 3.6892e-17 9.77143 0L2.05714 0C1.48908 9.68882e-17 1.02857 0.488417 1.02857 1.09091L1.02857 16.9091L0.514286 16.9091C0.230254 16.9091 3.47839e-17 17.1533 0 17.4545C-3.47839e-17 17.7558 0.230254 18 0.514286 18L17.4857 18C17.6695 18 17.8392 17.896 17.9311 17.7273C18.023 17.5585 18.023 17.3506 17.9311 17.1818C17.8392 17.0131 17.6695 16.9091 17.4857 16.9091L17.4857 16.9091ZM13.4 9L14.6 9C14.8209 9 15 9.22386 15 9.5C15 9.77614 14.8209 10 14.6 10L13.4 10C13.1791 10 13 9.77614 13 9.5C13 9.22386 13.1791 9 13.4 9L13.4 9ZM13.4 12L14.6 12C14.8209 12 15 12.2239 15 12.5C15 12.7761 14.8209 13 14.6 13L13.4 13C13.1791 13 13 12.7761 13 12.5C13 12.2239 13.1791 12 13.4 12L13.4 12ZM3.55556 6L7.44444 6C7.75127 6 8 6.22386 8 6.5C8 6.77614 7.75127 7 7.44444 7L3.55556 7C3.24873 7 3 6.77614 3 6.5C3 6.22386 3.24873 6 3.55556 6L3.55556 6ZM3.55556 9L7.44444 9C7.75127 9 8 9.22386 8 9.5C8 9.77614 7.75127 10 7.44444 10L3.55556 10C3.24873 10 3 9.77614 3 9.5C3 9.22386 3.24873 9 3.55556 9ZM3.55556 12L7.44444 12C7.75127 12 8 12.2239 8 12.5C8 12.7761 7.75127 13 7.44444 13L3.55556 13C3.24873 13 3 12.7761 3 12.5C3 12.2239 3.24873 12 3.55556 12L3.55556 12Z" id="形状" fill="url(#gradient_1)" stroke="none" />
</svg>