<svg 
 xmlns="http://www.w3.org/2000/svg"
 xmlns:xlink="http://www.w3.org/1999/xlink"
 width="432px" height="307px">
<defs>
<linearGradient id="PSgrad_0" x1="0%" x2="0%" y1="100%" y2="0%">
  <stop offset="0%" stop-color="rgb(0,144,255)" stop-opacity="0.76" />
  <stop offset="100%" stop-color="rgb(4,169,255)" stop-opacity="0" />
</linearGradient>

</defs>
<path fill-rule="evenodd"  fill-opacity="0.102" fill="rgb(4, 26, 56)"
 d="M3.1000,30.014 L427.1000,30.014 L427.1000,302.109 L3.1000,302.109 L3.1000,30.014 Z"/>
<path fill-rule="evenodd"  fill="rgb(58, 90, 131)"
 d="M4.1000,26.997 L426.1000,26.997 C427.552,26.997 427.1000,27.445 427.1000,27.997 L427.1000,28.106 C427.1000,28.659 427.552,29.106 426.1000,29.106 L4.1000,29.106 C4.448,29.106 3.1000,28.659 3.1000,28.106 L3.1000,27.997 C3.1000,27.445 4.448,26.997 4.1000,26.997 Z"/>
<path fill-rule="evenodd"  fill="rgb(0, 250, 253)"
 d="M415.500,26.379 L426.500,26.379 C427.328,26.379 427.1000,27.051 427.1000,27.879 L427.1000,28.045 C427.1000,28.873 427.328,29.545 426.500,29.545 L415.500,29.545 C414.671,29.545 413.1000,28.873 413.1000,28.045 L413.1000,27.879 C413.1000,27.051 414.671,26.379 415.500,26.379 Z"/>
<path fill-rule="evenodd"  fill-opacity="0" opacity="0.922" fill="rgb(255, 0, 0)"
 d="M108.719,27.434 L79.650,27.434 L102.758,-0.001 L131.828,-0.001 L108.719,27.434 ZM41.825,27.434 L64.933,-0.001 L94.002,-0.001 L70.894,27.434 L41.825,27.434 ZM3.999,27.434 L27.107,-0.001 L56.177,-0.001 L33.068,27.434 L3.999,27.434 Z"/>
<path fill="url(#PSgrad_0)"
 d="M108.719,27.434 L79.650,27.434 L102.758,-0.001 L131.828,-0.001 L108.719,27.434 ZM41.825,27.434 L64.933,-0.001 L94.002,-0.001 L70.894,27.434 L41.825,27.434 ZM3.999,27.434 L27.107,-0.001 L56.177,-0.001 L33.068,27.434 L3.999,27.434 Z"/>
<path fill-rule="evenodd"  fill-opacity="0" opacity="0.922" fill="rgb(255, 0, 0)"
 d="M223.515,27.434 L194.445,27.434 L217.554,-0.001 L246.623,-0.001 L223.515,27.434 ZM156.620,27.434 L179.728,-0.001 L208.798,-0.001 L185.689,27.434 L156.620,27.434 ZM118.795,27.434 L141.903,-0.001 L170.973,-0.001 L147.864,27.434 L118.795,27.434 Z"/>
<path fill="url(#PSgrad_0)"
 d="M223.515,27.434 L194.445,27.434 L217.554,-0.001 L246.623,-0.001 L223.515,27.434 ZM156.620,27.434 L179.728,-0.001 L208.798,-0.001 L185.689,27.434 L156.620,27.434 ZM118.795,27.434 L141.903,-0.001 L170.973,-0.001 L147.864,27.434 L118.795,27.434 Z"/>
<path fill-rule="evenodd"  fill-opacity="0" opacity="0.922" fill="rgb(255, 0, 0)"
 d="M335.902,27.434 L306.832,27.434 L329.940,-0.001 L359.010,-0.001 L335.902,27.434 ZM269.007,27.434 L292.115,-0.001 L321.185,-0.001 L298.077,27.434 L269.007,27.434 ZM231.182,27.434 L254.290,-0.001 L283.359,-0.001 L260.251,27.434 L231.182,27.434 Z"/>
<path fill="url(#PSgrad_0)"
 d="M335.902,27.434 L306.832,27.434 L329.940,-0.001 L359.010,-0.001 L335.902,27.434 ZM269.007,27.434 L292.115,-0.001 L321.185,-0.001 L298.077,27.434 L269.007,27.434 ZM231.182,27.434 L254.290,-0.001 L283.359,-0.001 L260.251,27.434 L231.182,27.434 Z"/>
</svg>
