<svg 
 xmlns="http://www.w3.org/2000/svg"
 xmlns:xlink="http://www.w3.org/1999/xlink"
 width="21px" height="29px">
<defs>
<filter filterUnits="userSpaceOnUse" id="Filter_0" x="0px" y="0px" width="16px" height="25px"  >
                <feOffset in="SourceAlpha" dx="-1.204" dy="1.597" />
                <feGaussianBlur result="blurOut" stdDeviation="0" />
                <feFlood flood-color="rgb(213, 211, 19)" result="floodOut" />
                <feComposite operator="atop" in="floodOut" in2="blurOut" />
                <feComponentTransfer><feFuncA type="linear" slope="0.25"/></feComponentTransfer>
                <feMerge>
    <feMergeNode/>
    <feMergeNode in="SourceGraphic"/>
  </feMerge>
            </filter>
<filter filterUnits="userSpaceOnUse" id="Filter_1" x="4px" y="4px" width="17px" height="25px"  >
                <feOffset in="SourceAlpha" dx="-1.204" dy="1.597" />
                <feGaussianBlur result="blurOut" stdDeviation="0" />
                <feFlood flood-color="rgb(0, 0, 0)" result="floodOut" />
                <feComposite operator="atop" in="floodOut" in2="blurOut" />
                <feComponentTransfer><feFuncA type="linear" slope="0.48"/></feComponentTransfer>
                <feMerge>
    <feMergeNode/>
    <feMergeNode in="SourceGraphic"/>
  </feMerge>
            </filter>

</defs>
<g filter="url(#Filter_0)">
<path fill-rule="evenodd"  fill="rgb(234, 255, 0)"
 d="M5.964,2.389 L11.766,4.029 C12.299,4.180 12.733,4.810 12.733,5.436 L12.733,17.901 C12.733,18.527 12.299,18.912 11.766,18.761 L5.964,17.120 C5.431,16.969 4.998,16.340 4.998,15.714 L4.998,3.249 C4.998,2.623 5.431,2.238 5.964,2.389 Z"/>
</g>
<g filter="url(#Filter_1)">
<path fill-rule="evenodd"  fill="rgb(0, 250, 253)"
 d="M10.260,6.094 L16.061,7.734 C16.595,7.885 17.029,8.515 17.029,9.140 L17.029,21.605 C17.029,22.231 16.595,22.616 16.061,22.465 L10.260,20.825 C9.726,20.674 9.293,20.044 9.293,19.418 L9.293,6.954 C9.293,6.328 9.726,5.943 10.260,6.094 Z"/>
</g>
</svg>
