<?xml version="1.0" encoding="utf-8"?>
<svg version="1.1" xmlns:xlink="http://www.w3.org/1999/xlink" width="20px" height="21px" xmlns="http://www.w3.org/2000/svg">
  <g transform="matrix(1 0 0 1 -1834 -509 )">
    <path d="M 9.74834437086093 10.764238410596  C 9.91611479028698 10.9403973509934  10 11.1490066225166  10 11.3900662251656  L 10 17.6205298013245  C 10 17.8615894039735  9.91611479028698 18.0701986754967  9.74834437086093 18.246357615894  C 9.58057395143488 18.4225165562914  9.38189845474614 18.5105960264901  9.1523178807947 18.5105960264901  C 8.92273730684327 18.5105960264901  8.72406181015453 18.4225165562914  8.55629139072848 18.246357615894  L 6.64900662251656 16.2437086092715  L 2.25165562913907 20.8609271523179  C 2.16335540838852 20.953642384106  2.06181015452539 21  1.94701986754967 21  C 1.83222958057395 21  1.73068432671082 20.953642384106  1.64238410596026 20.8609271523179  L 0.132450331125828 19.2754966887417  C 0.044150110375276 19.1827814569536  0 19.0761589403974  0 18.9556291390728  C 0 18.8350993377483  0.044150110375276 18.7284768211921  0.132450331125828 18.635761589404  L 4.52980132450331 14.0185430463576  L 2.62251655629139 12.0158940397351  C 2.45474613686534 11.8397350993377  2.37086092715232 11.6311258278146  2.37086092715232 11.3900662251656  C 2.37086092715232 11.1490066225166  2.45474613686534 10.9403973509934  2.62251655629139 10.764238410596  C 2.79028697571744 10.5880794701987  2.98896247240618 10.5  3.21854304635762 10.5  L 9.1523178807947 10.5  C 9.38189845474614 10.5  9.58057395143488 10.5880794701987  9.74834437086093 10.764238410596  Z M 19.8675496688742 1.72450331125828  C 19.9558498896247 1.81721854304635  20 1.92384105960265  20 2.04437086092715  C 20 2.16490066225165  19.9558498896247 2.27152317880795  19.8675496688742 2.36423841059603  L 15.4701986754967 6.98145695364238  L 17.3774834437086 8.9841059602649  C 17.5452538631347 9.16026490066225  17.6291390728477 9.36887417218543  17.6291390728477 9.60993377483444  C 17.6291390728477 9.85099337748344  17.5452538631347 10.0596026490066  17.3774834437086 10.235761589404  C 17.2097130242826 10.4119205298013  17.0110375275938 10.5  16.7814569536424 10.5  L 10.8476821192053 10.5  C 10.6181015452539 10.5  10.4194260485651 10.4119205298013  10.2516556291391 10.235761589404  C 10.083885209713 10.0596026490066  10 9.85099337748344  10 9.60993377483444  L 10 3.3794701986755  C 10 3.13841059602649  10.083885209713 2.92980132450331  10.2516556291391 2.75364238410596  C 10.4194260485651 2.57748344370861  10.6181015452539 2.48940397350993  10.8476821192053 2.48940397350993  C 11.0772626931567 2.48940397350993  11.2759381898455 2.57748344370861  11.4437086092715 2.75364238410596  L 13.3509933774834 4.75629139072848  L 17.7483443708609 0.13907284768212  C 17.8366445916115 0.0463576158940376  17.9381898454746 0  18.0529801324503 0  C 18.167770419426 0  18.2693156732892 0.0463576158940376  18.3576158940397 0.13907284768212  L 19.8675496688742 1.72450331125828  Z " fill-rule="nonzero" fill="#acb5b9" stroke="none" transform="matrix(1 0 0 1 1834 509 )" />
  </g>
</svg>